<?xml version="1.0" encoding="UTF-8" standalone="no"?>
<!DOCTYPE svg PUBLIC "-//W3C//DTD SVG 1.1//EN"
 "http://www.w3.org/Graphics/SVG/1.1/DTD/svg11.dtd">
<!-- Generated by graphviz version 2.43.0 (0)
 -->
<!-- Title: passes_kernel_gemm Pages: 1 -->
<svg width="616pt" height="422pt"
 viewBox="0.00 0.00 615.50 422.00" xmlns="http://www.w3.org/2000/svg" xmlns:xlink="http://www.w3.org/1999/xlink">
<g id="graph0" class="graph" transform="scale(1 1) rotate(0) translate(4 418)">
<title>passes_kernel_gemm</title>
<polygon fill="white" stroke="transparent" points="-4,4 -4,-418 611.5,-418 611.5,4 -4,4"/>
<text text-anchor="middle" x="303.75" y="-399.6" font-family="Helvetica,sans-Serif" font-size="13.00">LLVM O3 Pass Pipeline — kernel_gemm</text>
<g id="clust1" class="cluster">
<title>cluster_legend</title>
<polygon fill="none" stroke="black" stroke-dasharray="5,2" points="8,-8 8,-348 87,-348 87,-8 8,-8"/>
<text text-anchor="middle" x="47.5" y="-336.8" font-family="Helvetica,sans-Serif" font-size="9.00">Category</text>
</g>
<!-- _L_vectorize -->
<g id="node1" class="node">
<title>_L_vectorize</title>
<path fill="#aed6f1" stroke="black" d="M67,-322C67,-322 28,-322 28,-322 22,-322 16,-316 16,-310 16,-310 16,-298 16,-298 16,-292 22,-286 28,-286 28,-286 67,-286 67,-286 73,-286 79,-292 79,-298 79,-298 79,-310 79,-310 79,-316 73,-322 67,-322"/>
<text text-anchor="middle" x="47.5" y="-301.8" font-family="Helvetica,sans-Serif" font-size="9.00">vectorize</text>
</g>
<!-- _L_loop -->
<g id="node2" class="node">
<title>_L_loop</title>
<path fill="#a9dfbf" stroke="black" d="M62.5,-268C62.5,-268 32.5,-268 32.5,-268 26.5,-268 20.5,-262 20.5,-256 20.5,-256 20.5,-244 20.5,-244 20.5,-238 26.5,-232 32.5,-232 32.5,-232 62.5,-232 62.5,-232 68.5,-232 74.5,-238 74.5,-244 74.5,-244 74.5,-256 74.5,-256 74.5,-262 68.5,-268 62.5,-268"/>
<text text-anchor="middle" x="47.5" y="-247.8" font-family="Helvetica,sans-Serif" font-size="9.00">loop</text>
</g>
<!-- _L_memory -->
<g id="node3" class="node">
<title>_L_memory</title>
<path fill="#f9e79f" stroke="black" d="M65.5,-214C65.5,-214 29.5,-214 29.5,-214 23.5,-214 17.5,-208 17.5,-202 17.5,-202 17.5,-190 17.5,-190 17.5,-184 23.5,-178 29.5,-178 29.5,-178 65.5,-178 65.5,-178 71.5,-178 77.5,-184 77.5,-190 77.5,-190 77.5,-202 77.5,-202 77.5,-208 71.5,-214 65.5,-214"/>
<text text-anchor="middle" x="47.5" y="-193.8" font-family="Helvetica,sans-Serif" font-size="9.00">memory</text>
</g>
<!-- _L_scalar -->
<g id="node4" class="node">
<title>_L_scalar</title>
<path fill="#f5cba7" stroke="black" d="M62.5,-160C62.5,-160 32.5,-160 32.5,-160 26.5,-160 20.5,-154 20.5,-148 20.5,-148 20.5,-136 20.5,-136 20.5,-130 26.5,-124 32.5,-124 32.5,-124 62.5,-124 62.5,-124 68.5,-124 74.5,-130 74.5,-136 74.5,-136 74.5,-148 74.5,-148 74.5,-154 68.5,-160 62.5,-160"/>
<text text-anchor="middle" x="47.5" y="-139.8" font-family="Helvetica,sans-Serif" font-size="9.00">scalar</text>
</g>
<!-- _L_inline -->
<g id="node5" class="node">
<title>_L_inline</title>
<path fill="#d2b4de" stroke="black" d="M62.5,-106C62.5,-106 32.5,-106 32.5,-106 26.5,-106 20.5,-100 20.5,-94 20.5,-94 20.5,-82 20.5,-82 20.5,-76 26.5,-70 32.5,-70 32.5,-70 62.5,-70 62.5,-70 68.5,-70 74.5,-76 74.5,-82 74.5,-82 74.5,-94 74.5,-94 74.5,-100 68.5,-106 62.5,-106"/>
<text text-anchor="middle" x="47.5" y="-85.8" font-family="Helvetica,sans-Serif" font-size="9.00">inline</text>
</g>
<!-- _L_other -->
<g id="node6" class="node">
<title>_L_other</title>
<path fill="#d5d8dc" stroke="black" d="M62.5,-52C62.5,-52 32.5,-52 32.5,-52 26.5,-52 20.5,-46 20.5,-40 20.5,-40 20.5,-28 20.5,-28 20.5,-22 26.5,-16 32.5,-16 32.5,-16 62.5,-16 62.5,-16 68.5,-16 74.5,-22 74.5,-28 74.5,-28 74.5,-40 74.5,-40 74.5,-46 68.5,-52 62.5,-52"/>
<text text-anchor="middle" x="47.5" y="-31.8" font-family="Helvetica,sans-Serif" font-size="9.00">other</text>
</g>
<!-- EarlyCSEPass -->
<g id="node7" class="node">
<title>EarlyCSEPass</title>
<path fill="#f5cba7" stroke="black" d="M68.5,-392C68.5,-392 26.5,-392 26.5,-392 20.5,-392 14.5,-386 14.5,-380 14.5,-380 14.5,-368 14.5,-368 14.5,-362 20.5,-356 26.5,-356 26.5,-356 68.5,-356 68.5,-356 74.5,-356 80.5,-362 80.5,-368 80.5,-368 80.5,-380 80.5,-380 80.5,-386 74.5,-392 68.5,-392"/>
<text text-anchor="middle" x="47.5" y="-371.8" font-family="Helvetica,sans-Serif" font-size="9.00">Early&#45;CSE</text>
</g>
<!-- SLPVectorizerPass -->
<g id="node8" class="node">
<title>SLPVectorizerPass</title>
<path fill="#aed6f1" stroke="#cc0000" stroke-width="2" d="M178.5,-392C178.5,-392 128.5,-392 128.5,-392 122.5,-392 116.5,-386 116.5,-380 116.5,-380 116.5,-368 116.5,-368 116.5,-362 122.5,-356 128.5,-356 128.5,-356 178.5,-356 178.5,-356 184.5,-356 190.5,-362 190.5,-368 190.5,-368 190.5,-380 190.5,-380 190.5,-386 184.5,-392 178.5,-392"/>
<text text-anchor="middle" x="153.5" y="-376.8" font-family="Helvetica,sans-Serif" font-size="9.00">SLP&#45;Vect</text>
<text text-anchor="middle" x="153.5" y="-366.8" font-family="Helvetica,sans-Serif" font-size="9.00">⚠ 1 missed</text>
</g>
<!-- EarlyCSEPass&#45;&gt;SLPVectorizerPass -->
<g id="edge1" class="edge">
<title>EarlyCSEPass&#45;&gt;SLPVectorizerPass</title>
<path fill="none" stroke="#555555" d="M80.55,-374C88.7,-374 97.62,-374 106.32,-374"/>
<polygon fill="#555555" stroke="#555555" points="106.38,-377.5 116.38,-374 106.38,-370.5 106.38,-377.5"/>
</g>
<!-- LoopVectorizePass -->
<g id="node9" class="node">
<title>LoopVectorizePass</title>
<path fill="#aed6f1" stroke="black" d="M280.5,-392C280.5,-392 238.5,-392 238.5,-392 232.5,-392 226.5,-386 226.5,-380 226.5,-380 226.5,-368 226.5,-368 226.5,-362 232.5,-356 238.5,-356 238.5,-356 280.5,-356 280.5,-356 286.5,-356 292.5,-362 292.5,-368 292.5,-368 292.5,-380 292.5,-380 292.5,-386 286.5,-392 280.5,-392"/>
<text text-anchor="middle" x="259.5" y="-371.8" font-family="Helvetica,sans-Serif" font-size="9.00">Loop&#45;Vect</text>
</g>
<!-- SLPVectorizerPass&#45;&gt;LoopVectorizePass -->
<g id="edge2" class="edge">
<title>SLPVectorizerPass&#45;&gt;LoopVectorizePass</title>
<path fill="none" stroke="#555555" d="M190.58,-374C198.84,-374 207.69,-374 216.19,-374"/>
<polygon fill="#555555" stroke="#555555" points="216.3,-377.5 226.3,-374 216.3,-370.5 216.3,-377.5"/>
</g>
<!-- LICMPass -->
<g id="node10" class="node">
<title>LICMPass</title>
<path fill="#f9e79f" stroke="black" d="M370.5,-392C370.5,-392 340.5,-392 340.5,-392 334.5,-392 328.5,-386 328.5,-380 328.5,-380 328.5,-368 328.5,-368 328.5,-362 334.5,-356 340.5,-356 340.5,-356 370.5,-356 370.5,-356 376.5,-356 382.5,-362 382.5,-368 382.5,-368 382.5,-380 382.5,-380 382.5,-386 376.5,-392 370.5,-392"/>
<text text-anchor="middle" x="355.5" y="-371.8" font-family="Helvetica,sans-Serif" font-size="9.00">LICM</text>
</g>
<!-- LoopVectorizePass&#45;&gt;LICMPass -->
<g id="edge3" class="edge">
<title>LoopVectorizePass&#45;&gt;LICMPass</title>
<path fill="none" stroke="#555555" d="M292.59,-374C300.91,-374 309.92,-374 318.43,-374"/>
<polygon fill="#555555" stroke="#555555" points="318.47,-377.5 328.47,-374 318.47,-370.5 318.47,-377.5"/>
</g>
<!-- LoopUnrollPass -->
<g id="node11" class="node">
<title>LoopUnrollPass</title>
<path fill="#a9dfbf" stroke="black" d="M479.5,-392C479.5,-392 430.5,-392 430.5,-392 424.5,-392 418.5,-386 418.5,-380 418.5,-380 418.5,-368 418.5,-368 418.5,-362 424.5,-356 430.5,-356 430.5,-356 479.5,-356 479.5,-356 485.5,-356 491.5,-362 491.5,-368 491.5,-368 491.5,-380 491.5,-380 491.5,-386 485.5,-392 479.5,-392"/>
<text text-anchor="middle" x="455" y="-371.8" font-family="Helvetica,sans-Serif" font-size="9.00">Loop&#45;Unroll</text>
</g>
<!-- LICMPass&#45;&gt;LoopUnrollPass -->
<g id="edge4" class="edge">
<title>LICMPass&#45;&gt;LoopUnrollPass</title>
<path fill="none" stroke="#555555" d="M382.63,-374C390.49,-374 399.37,-374 408.12,-374"/>
<polygon fill="#555555" stroke="#555555" points="408.27,-377.5 418.27,-374 408.27,-370.5 408.27,-377.5"/>
</g>
<!-- InstCombinePass -->
<g id="node12" class="node">
<title>InstCombinePass</title>
<path fill="#f5cba7" stroke="black" d="M595.5,-392C595.5,-392 539.5,-392 539.5,-392 533.5,-392 527.5,-386 527.5,-380 527.5,-380 527.5,-368 527.5,-368 527.5,-362 533.5,-356 539.5,-356 539.5,-356 595.5,-356 595.5,-356 601.5,-356 607.5,-362 607.5,-368 607.5,-368 607.5,-380 607.5,-380 607.5,-386 601.5,-392 595.5,-392"/>
<text text-anchor="middle" x="567.5" y="-371.8" font-family="Helvetica,sans-Serif" font-size="9.00">InstCombine</text>
</g>
<!-- LoopUnrollPass&#45;&gt;InstCombinePass -->
<g id="edge5" class="edge">
<title>LoopUnrollPass&#45;&gt;InstCombinePass</title>
<path fill="none" stroke="#555555" d="M491.57,-374C499.64,-374 508.36,-374 516.9,-374"/>
<polygon fill="#555555" stroke="#555555" points="517.17,-377.5 527.17,-374 517.17,-370.5 517.17,-377.5"/>
</g>
</g>
</svg>
